<svg id="horn-right" version="1.1" x="0px" y="0px" viewBox="0 0 58.31 125.65">
  <g>
  	<path style="fill:#B3B3B3;" d="M4.635,88.284c0,0,33.293-32.525,34.512-62.5c1.654-40.667,12.988-25.913,18.25-5.5
  		c0,0,9.342,46.017-31.726,98.943"/>
  	<path style="fill:#FFFFFF;stroke:#000000;stroke-miterlimit:10;" d="M0.174,81.612c0,0,4.609,1.713,7.296,0.222l-1.8,4.843
  		l7.03,2.613c0,0-5.427,5.273-2.534,7.059c0,0,4.729,2.824,10.461,1.754l-2.787,7.499c0,0,1.999,3.232,8.436,3.135l-1.916,5.156
  		l4.218,1.568c0,0-5.429,4.561-1.796,6.267l-1.393,3.749"/>
  </g>
</svg>
