<svg id="upper-jaw" version="1.1" x="0px" y="0px" viewBox="0 0 362.731 44">
  <g>
  	<g id="teeth">
  		<path style="fill:#FFFFFF;stroke:#000000;stroke-miterlimit:10;" d="M0.5,28.5v-17L5.019,8l31.231,2.5c0,0,4.25-0.5,4.25,5
  			s0,20,0,20v5C40.5,40.5,9,44,0.5,28.5z"/>
  		<path style="fill:#FFFFFF;stroke:#000000;stroke-miterlimit:10;" d="M41.5,32.5v-28c0,0,16.358-9,41.429,0c0,0,2.929,21.5,0,28
  			S41.5,36.5,41.5,32.5z"/>
  		<path style="fill:#FFFFFF;stroke:#000000;stroke-miterlimit:10;" d="M135.5,38.5v-28c0,0,16.358-9,41.429,0c0,0,2.929,21.5,0,28
  			S135.5,42.5,135.5,38.5z"/>
  		<path style="fill:#FFFFFF;stroke:#000000;stroke-miterlimit:10;" d="M88.5,33.5v-28c0,0,16.358-9,41.429,0c0,0,2.929,21.5,0,28
  			S88.5,37.5,88.5,33.5z"/>
  		<path style="fill:#FFFFFF;stroke:#000000;stroke-miterlimit:10;" d="M319.5,32.5v-28c0,0,16.358-9,41.429,0c0,0,2.929,21.5,0,28
  			S319.5,36.5,319.5,32.5z"/>
  		<path style="fill:#FFFFFF;stroke:#000000;stroke-miterlimit:10;" d="M181.5,38.423v-20.25c0-5.112,3.556-9.54,8.554-10.615
  			c5.884-1.266,14.563-1.959,25.28,0.595c4.592,1.094,7.986,4.968,8.39,9.671c0.589,6.858,1.014,16.587-0.794,20.599
  			C220,44.923,181.5,42.423,181.5,38.423z"/>
  		<path style="fill:#FFFFFF;stroke:#000000;stroke-miterlimit:10;" d="M227.5,38.423v-20.25c0-5.112,3.556-9.54,8.554-10.615
  			c5.884-1.266,14.563-1.959,25.28,0.595c4.592,1.094,7.986,4.968,8.39,9.671c0.59,6.858,1.014,16.587-0.794,20.599
  			C266,44.923,227.5,42.423,227.5,38.423z"/>
  		<path style="fill:#FFFFFF;stroke:#000000;stroke-miterlimit:10;" d="M274.198,39.508v-20.25c0-5.112,3.556-9.54,8.554-10.615
  			c5.884-1.266,14.563-1.959,25.28,0.595c4.592,1.094,7.986,4.968,8.39,9.671c0.589,6.858,1.014,16.587-0.794,20.599
  			C312.698,46.008,274.198,43.508,274.198,39.508z"/>
  	</g>
  </g>
</svg>
