<svg id="horn-left" version="1.1" viewBox="0 0 58.378 125.779" style="enable-background:new 0 0 58.378 125.779;">
  <g>
  	<path style="fill:#B3B3B3;" d="M54.481,87.913c0,0-35.25-32-35.25-62s-6.747-36.667-18.25-5.5c0,0-9.627,45.354,31.441,98.281"/>
  	<path style="fill:#FFFFFF;stroke:#000000;stroke-miterlimit:10;" d="M58.204,81.741c0,0-4.609,1.713-7.296,0.222l1.8,4.843
  		l-7.03,2.613c0,0,5.427,5.273,2.534,7.059c0,0-4.729,2.824-10.461,1.754l2.787,7.499c0,0-1.999,3.232-8.436,3.135l1.916,5.156
  		l-4.218,1.568c0,0,5.429,4.561,1.796,6.267l1.393,3.749"/>
  </g>
</svg>
