<?xml version="1.0" encoding="iso-8859-1"?>
<!-- Generator: Adobe Illustrator 18.1.1, SVG Export Plug-In . SVG Version: 6.00 Build 0)  -->
<svg version="1.1" x="0px" y="0px" viewBox="0 0 451.775 131.377">
  <g id="chin">
  	<path id="chin_1_" style="fill:#FFFFFF;stroke:#000000;stroke-miterlimit:10;" d="M417.817,1.427
  		c-1.341-2.843,5.577,1.685,7.397,2.509c16.459,7.45,25.687,12.782,25.687,12.782s6.251,75.591-32.416,94.924
  		c-38.667,19.333-71.322,18.62-71.322,18.62s-232.661,1.384-253.663,0.001c-21.002-1.383-36.329-9.95-63.662-20.616
  		C2.506,98.98,0.507,16.728,0.507,16.728c6.9-4.158,13.81-8.056,20.72-11.707c0.725-0.383,1.207-0.76,1.978-1.132
  		C25.454,2.807,26.5,35.297,28.5,34.314v37c0,0,1.087,11.279,18.587,22.889s38.544,23.111,102.544,4.111
  		s143.717,0.456,143.717,0.456s61.315,22.544,122.315-15.456C415.664,83.314,441.824,52.312,417.817,1.427z"/>
  </g>
</svg>
