<svg id='arrow' viewBox='0 0 252.839 208.362'>
  <g><g>
		<path style="fill:#FFFFFF;" d="M126.563,207.933c145.46-87.051,128.996-135.829,120.312-135.829
			c-8.684,0-40.707,1.501-40.707,1.501l-4.67-67.3C126.563-5.567,51.477,4.34,51.477,4.34l-4.806,69.18
			c0,0-32.023-1.459-40.707-1.459s-25.148,48.799,120.312,135.85"/>
		<path d="M126.819,208.362l-0.406-0.68l-0.395,0.659C75.003,177.81,38.65,148.932,17.968,122.509
			c-6.59-8.42-21.46-29.661-17.219-45.007c0.997-3.609,3.044-5.94,5.215-5.94c8.009,0,36.176,1.254,40.242,1.438l4.8-69.101
			l0.405-0.053c0.751-0.1,76.015-9.781,150.165,1.966l0.394,0.062l4.663,67.209c4.066-0.188,32.232-1.479,40.242-1.479
			c2.171,0,4.219,2.332,5.216,5.939c4.239,15.341-10.632,36.578-17.222,44.996C214.187,148.957,177.834,177.832,126.819,208.362z
			 M5.964,72.562c-1.4,0-3.257,1.61-4.251,5.207c-4.236,15.326,11.974,37.648,17.043,44.125
			c20.593,26.31,56.82,55.086,107.681,85.533c50.84-30.438,87.057-59.204,107.645-85.502c5.069-6.475,21.28-28.792,17.046-44.113
			c-0.994-3.596-2.852-5.206-4.252-5.206c-8.573,0-40.363,1.485-40.684,1.5l-0.488,0.023l-4.677-67.391
			C129.972-4.448,58.001,4.034,51.947,4.785l-4.812,69.257l-0.488-0.022C46.328,74.005,14.537,72.562,5.964,72.562z"/>
  	</g></g>
</svg>
