<svg id="hair-fuzz" version="1.1" x="0px" y="0px" viewBox="0 0 531.425 151.274">
  <g>
  	<path style="fill:#FFFFFF;stroke:#000000;stroke-miterlimit:10;" d="M511.437,0.032L511.437,0.032
  		c2,73,18.563,90.948,18.563,90.948c-14-2.913-25.667-5.724-25.667-5.724c-11.333,5.754-13.167,23.888-13.167,23.888
  		C476.5,97.811,472.5,99.838,472.5,99.838c-12,25.229-42.667,24.002-42.667,24.002c6.667-8.678,5.042-17.69,5.042-17.69
  		C422,124.275,407.5,127.528,407.5,127.528c-8.25-8.75-10.875-6.373-10.875-6.373c-8.125,7-24.292,13.043-24.292,13.043
  		c-5.938-3.562-21.146-9.166-21.146-9.166c0,9.188-4.875,13-4.875,13c-6.25-2.625-11.625-3.062-11.625-3.062
  		c0.25,4.688-1.125,7.25-1.125,7.25c-5.75-1.562-13.5-6.021-13.5-6.021l-0.896,3.667c-12-3.333-15.333-12.667-15.333-12.667
  		c-4.667,14-41.333,18-41.333,18c7-13-30.667-13.667-30.667-13.667l-14.333,12c-2.667,4-10.333,7-10.333,7
  		c0.333-10-8.333-17-12.333-18.333c-4-1.333-9,7-9,7c-3-2.333-9.833-11.667-9.833-11.667l-8.737-8.438
  		c-3.254-3.634-35.762,2.737-38.763,4.76l-14.891-14.397l-18.442,3.075c0,0,0-20-7.649-10.327l-17.684,10.328L55.835,96.534
  		l-5.999,10.669L31.172,88.542l-17.328,8.677c4.667-8,4.677-25.312,4.677-25.312L0.5,67.646c0-2.833,8.769-36.92,10.729-67.615"/>
  </g>
</svg>
