<svg id="lower-jaw" version="1.1"x="0px" y="0px" viewBox="0 0 370.086 47.068">
  <g>
  	<g id="teeth">
  		<path style="fill:#FFFFFF;stroke:#000000;stroke-miterlimit:10;" d="M0.5,22.577v-17l4.519-3.5l31.231,2.5c0,0,4.25-0.5,4.25,5
  			s0,20,0,20v5C40.5,34.577,9,38.077,0.5,22.577z"/>
  		<path style="fill:#FFFFFF;stroke:#000000;stroke-miterlimit:10;" d="M143.5,26.577v-17l4.519-3.5l31.231,2.5c0,0,4.25-0.5,4.25,5
  			s0,20,0,20v5C183.5,38.577,152,42.077,143.5,26.577z"/>
  		<path style="fill:#FFFFFF;stroke:#000000;stroke-miterlimit:10;" d="M48.5,36.577v-28c0,0,16.358-9,41.429,0c0,0,2.929,21.5,0,28
  			S48.5,40.577,48.5,36.577z"/>
  		<path style="fill:#FFFFFF;stroke:#000000;stroke-miterlimit:10;" d="M188.5,38.577v-28c0,0,16.358-9,41.429,0c0,0,2.929,21.5,0,28
  			S188.5,42.577,188.5,38.577z"/>
  		<path style="fill:#FFFFFF;stroke:#000000;stroke-miterlimit:10;" d="M95.5,36.577v-28c0,0,16.358-9,41.429,0c0,0,2.929,21.5,0,28
  			S95.5,40.577,95.5,36.577z"/>
  		<path style="fill:#FFFFFF;stroke:#000000;stroke-miterlimit:10;" d="M282.5,42.577v-28c0,0,16.358-9,41.429,0c0,0,2.929,21.5,0,28
  			S282.5,46.577,282.5,42.577z"/>
  		<path style="fill:#FFFFFF;stroke:#000000;stroke-miterlimit:10;" d="M234.5,42.577v-20.25c0-5.112,3.556-9.54,8.554-10.615
  			c5.884-1.266,14.563-1.959,25.28,0.595c4.592,1.094,7.986,4.968,8.39,9.671c0.59,6.858,1.014,16.587-0.794,20.599
  			C273,49.077,234.5,46.577,234.5,42.577z"/>
  		<path style="fill:#FFFFFF;stroke:#000000;stroke-miterlimit:10;" d="M326.855,32.5V12.25c0-5.112,3.556-9.54,8.554-10.615
  			c5.884-1.266,14.563-1.959,25.28,0.595c4.592,1.094,7.986,4.968,8.39,9.671c0.59,6.858,1.014,16.587-0.794,20.599
  			C365.355,39,326.855,36.5,326.855,32.5z"/>
  	</g>
  </g>
</svg>
