<svg id="tongue" version="1.1" x="0px" y="0px" viewBox="0 0 83.768 86.408">
  <g>
  	<path style="fill:#FF7BAC;stroke:#000000;stroke-miterlimit:10;" d="M2.222,46.887c-0.162,1.158-0.419,2.301-0.741,3.425
  		c-0.757,2.643-1.968,8.929,0.454,16.929C4.76,76.574,30.89,93.564,54.349,82.034c5.931-2.915,10.258-6.653,12.446-14.479
  		c1.925-6.885,1.97-22.822,6.369-38.38C79.876,5.435,84.727,0.804,82.867,1.551c-3.933,1.579-8.029,2.713-12.259,2.459L15.497,0.699
  		C15.497,0.699,9.53-5.177,2.222,46.887z"/>
  	<path style="fill:none;stroke:#000000;stroke-miterlimit:10;" d="M36.363,57.175c0,0,2.261-26.999,11.521-40.667"/>
  </g>
</svg>
