<svg version="1.1" x="0px" y="0px" viewBox="0 0 493.473 121.214">
  <g id="cheeks">
  	<path style="fill:#FFFFFF;stroke:#000000;stroke-miterlimit:10;" d="M246.026,91.714c36.856-1,105.887,17.91,105.887,17.91
  		s49.333,21.205,87.333,5.205c32.378-13.633,56.868-31.398,53.398-103.374C491.674-8.683,452.17,7.39,452.17,7.39
  		c-23.5,19.374-45.942,24.849-71.924,14.849c-27.065-10.417-134.22,2.475-134.22,2.475h3.364c0,0-105.798-14.161-133.144-4.507
  		c-37,13.063-53.655-7.362-73-12.627c0,0-18.072-14.408-32.667-2.073c-26.272,22.204,0.814,106.455,58,113.226
  		c49.633,5.877,77.333-5.759,77.333-5.759s66.621-22.259,103.477-21.259H246.026z"/>
  </g>
</svg>
